<?xml version="1.0" encoding="UTF-8" standalone="no"?>
<svg
   xmlns:dc="http://purl.org/dc/elements/1.1/"
   xmlns:cc="http://creativecommons.org/ns#"
   xmlns:rdf="http://www.w3.org/1999/02/22-rdf-syntax-ns#"
   xmlns:svg="http://www.w3.org/2000/svg"
   xmlns="http://www.w3.org/2000/svg"
   xmlns:sodipodi="http://sodipodi.sourceforge.net/DTD/sodipodi-0.dtd"
   xmlns:inkscape="http://www.inkscape.org/namespaces/inkscape"
   width="230.47511mm"
   height="90.69278mm"
   viewBox="0 0 230.47511 90.69278"
   version="1.1"
   id="svg1068"
   sodipodi:docname="logo-weiß.svg"
   inkscape:version="1.0.1 (3bc2e813f5, 2020-09-07)">
  <defs
     id="defs1062" />
  <sodipodi:namedview
     id="base"
     pagecolor="#ffffff"
     bordercolor="#666666"
     borderopacity="1.0"
     inkscape:pageopacity="0.0"
     inkscape:pageshadow="2"
     inkscape:zoom="0.70710678"
     inkscape:cx="382.29702"
     inkscape:cy="412.95934"
     inkscape:document-units="mm"
     inkscape:current-layer="layer1"
     inkscape:document-rotation="0"
     showgrid="false"
     lock-margins="true"
     inkscape:window-width="1510"
     inkscape:window-height="1053"
     inkscape:window-x="25"
     inkscape:window-y="27"
     inkscape:window-maximized="0"
     fit-margin-top="10"
     fit-margin-left="10"
     fit-margin-right="10"
     fit-margin-bottom="10" />
  <metadata
     id="metadata1065">
    <rdf:RDF>
      <cc:Work
         rdf:about="">
        <dc:format>image/svg+xml</dc:format>
        <dc:type
           rdf:resource="http://purl.org/dc/dcmitype/StillImage" />
        <dc:title></dc:title>
      </cc:Work>
    </rdf:RDF>
  </metadata>
  <g
     inkscape:label="Ebene 1"
     inkscape:groupmode="layer"
     id="layer1"
     transform="translate(-6.4707796,-65.778611)">
    <path
       id="path857"
       style="mix-blend-mode:normal;fill:#ff6900;fill-opacity:1;stroke:none;stroke-width:0.981496;stroke-miterlimit:4;stroke-dasharray:none;stroke-opacity:0"
       inkscape:transform-center-x="-10.203507"
       inkscape:transform-center-y="3.8200008e-06"
       d="m 78.052428,110.1242 -1.546881,5.46101 -6.54861,4.37639 -7.652631,4.41829 -7.652628,4.41831 -30.610529,17.67319 V 111.125 75.778611 l 30.610529,17.673191 7.652628,4.4183 7.652631,4.418308 7.652642,4.41828 z"
       sodipodi:nodetypes="ccccccccccccc" />
    <text
       xml:space="preserve"
       style="font-weight:bold;font-size:50.8px;line-height:1.25;font-family:'YouTube Sans';-inkscape-font-specification:'YouTube Sans Bold';fill:#ffffff;fill-opacity:1;stroke-width:0.264583;"
       x="12.91478"
       y="126.83258"
       id="text861"><tspan
         sodipodi:role="line"
         id="tspan859"
         x="12.91478"
         y="126.83258"
         style="font-style:normal;font-variant:normal;font-weight:bold;font-stretch:normal;font-size:50.8px;font-family:Ubuntu;-inkscape-font-specification:'Ubuntu Bold';fill:#ffffff;fill-opacity:1;stroke-width:0.264583;">kw</tspan></text>
    <circle
       style="fill:#ff6900;fill-opacity:1;stroke:none;stroke-width:0.770393;stroke-miterlimit:4;stroke-dasharray:none;stroke-opacity:1"
       id="circle1140"
       cx="85.281494"
       cy="111.20379"
       r="3.6523573" />
    <g
       aria-label="media"
       id="text903"
       style="font-weight:bold;font-size:50.8px;line-height:1.25;font-family:'YouTube Sans';-inkscape-font-specification:'YouTube Sans Bold';letter-spacing:-1.32292px;fill:#ffffff;fill-opacity:1;stroke-width:0.264583"
       transform="translate(-72.343583,212.46525)">
      <path
         d="m 179.2069,-99.821691 q 0,-3.657599 -0.9652,-5.181599 -0.9144,-1.524 -3.2004,-1.524 -0.7112,0 -1.4732,0.1016 -0.762,0.0508 -1.4732,0.1524 v 20.624799 h -7.5692 v -25.806399 q 0.9652,-0.254 2.2352,-0.508 1.3208,-0.3048 2.7432,-0.508 1.4732,-0.254 2.9972,-0.3556 1.524,-0.1524 2.9972,-0.1524 2.8956,0 4.6736,0.762 1.8288,0.7112 2.9972,1.7272 1.6256,-1.1684 3.7084,-1.8288 2.1336,-0.6604 3.9116,-0.6604 3.2004,0 5.2324,0.9144 2.0828,0.8636 3.302,2.4892 1.2192,1.6256 1.6764,3.8608 0.4572,2.2352 0.4572,4.9784 v 15.087599 h -7.5692 v -14.1732 q 0,-3.657599 -0.9652,-5.181599 -0.9144,-1.524 -3.2004,-1.524 -0.6096,0 -1.7272,0.3048 -1.0668,0.3048 -1.778,0.762 0.3556,1.1684 0.4572,2.4892 0.1016,1.27 0.1016,2.7432 v 14.579599 h -7.5692 z"
         style="font-style:normal;font-variant:normal;font-weight:bold;font-stretch:normal;font-size:50.8px;font-family:Ubuntu;-inkscape-font-specification:'Ubuntu Bold';fill:#ffffff;fill-opacity:1;stroke-width:0.264583"
         id="path967" />
      <path
         d="m 205.72235,-98.805691 q 0,-3.555999 1.0668,-6.197599 1.1176,-2.6924 2.8956,-4.4704 1.778,-1.778 4.064,-2.6924 2.3368,-0.9144 4.7752,-0.9144 5.6896,0 8.9916,3.5052 3.302,3.4544 3.302,10.210799 0,0.6604 -0.0508,1.4732 -0.0508,0.762 -0.1016,1.3716 h -17.1704 q 0.254,2.3368 2.1844,3.7084 1.9304,1.3716 5.1816,1.3716 2.0828,0 4.064,-0.3556 2.032,-0.4064 3.302,-0.9652 l 1.016,6.1468 q -0.6096,0.3048 -1.6256,0.6096 -1.016,0.3048 -2.286,0.508 -1.2192,0.254 -2.6416,0.4064 -1.4224,0.1524 -2.8448,0.1524 -3.6068,0 -6.2992,-1.0668 -2.6416,-1.0668 -4.4196,-2.8956 -1.7272,-1.8796 -2.5908,-4.4196 -0.8128,-2.54 -0.8128,-5.4864 z m 17.78,-2.895599 q -0.0508,-0.9652 -0.3556,-1.8796 -0.254,-0.9144 -0.8636,-1.6256 -0.5588,-0.7112 -1.4732,-1.1684 -0.8636,-0.4572 -2.1844,-0.4572 -1.27,0 -2.1844,0.4572 -0.9144,0.4064 -1.524,1.1176 -0.6096,0.7112 -0.9652,1.6764 -0.3048,0.9144 -0.4572,1.8796 z"
         style="font-style:normal;font-variant:normal;font-weight:bold;font-stretch:normal;font-size:50.8px;font-family:Ubuntu;-inkscape-font-specification:'Ubuntu Bold';fill:#ffffff;fill-opacity:1;stroke-width:0.264583"
         id="path969" />
      <path
         d="m 241.78822,-99.212091 q 0,3.5052 1.5748,5.6388 1.5748,2.1336 4.6736,2.1336 1.016,0 1.8796,-0.0508 0.8636,-0.1016 1.4224,-0.2032 v -13.766799 q -0.7112,-0.4572 -1.8796,-0.762 -1.1176,-0.3048 -2.286,-0.3048 -5.3848,0 -5.3848,7.315199 z m 17.1196,12.7 q -1.016,0.3048 -2.3368,0.6096 -1.3208,0.254 -2.794,0.4572 -1.4224,0.2032 -2.9464,0.3048 -1.4732,0.1524 -2.8448,0.1524 -3.302,0 -5.8928,-0.9652 -2.5908,-0.9652 -4.3688,-2.7432 -1.778,-1.8288 -2.7432,-4.3688 -0.9144,-2.5908 -0.9144,-5.7912 0,-3.251199 0.8128,-5.841999 0.8128,-2.6416 2.3368,-4.4704 1.524,-1.8288 3.7084,-2.794 2.2352,-0.9652 5.08,-0.9652 1.5748,0 2.794,0.3048 1.27,0.3048 2.54,0.8636 v -12.0904 l 7.5692,-1.2192 z"
         style="font-style:normal;font-variant:normal;font-weight:bold;font-stretch:normal;font-size:50.8px;font-family:Ubuntu;-inkscape-font-specification:'Ubuntu Bold';fill:#ffffff;fill-opacity:1;stroke-width:0.264583"
         id="path971" />
      <path
         d="m 272.26601,-85.648491 h -7.5692 v -26.720799 h 7.5692 z"
         style="font-style:normal;font-variant:normal;font-weight:bold;font-stretch:normal;font-size:50.8px;font-family:Ubuntu;-inkscape-font-specification:'Ubuntu Bold';fill:#ffffff;fill-opacity:1;stroke-width:0.264583"
         id="path973"
         sodipodi:nodetypes="ccccc" />
      <path
         d="m 288.26587,-90.931691 q 1.1176,0 2.1336,-0.0508 1.016,-0.0508 1.6256,-0.1524 v -5.7404 q -0.4572,-0.1016 -1.3716,-0.2032 -0.9144,-0.1016 -1.6764,-0.1016 -1.0668,0 -2.032,0.1524 -0.9144,0.1016 -1.6256,0.4572 -0.7112,0.3556 -1.1176,0.9652 -0.4064,0.6096 -0.4064,1.524 0,1.778 1.1684,2.4892 1.2192,0.6604 3.302,0.6604 z m -0.6096,-22.148799 q 3.3528,0 5.588,0.762 2.2352,0.762 3.556,2.1844 1.3716,1.4224 1.9304,3.4544 0.5588,2.032 0.5588,4.5212 v 15.747999 q -1.6256,0.3556 -4.5212,0.8128 -2.8956,0.508 -7.0104,0.508 -2.5908,0 -4.7244,-0.4572 -2.0828,-0.4572 -3.6068,-1.4732 -1.524,-1.0668 -2.3368,-2.7432 -0.8128,-1.6764 -0.8128,-4.1148 0,-2.3368 0.9144,-3.9624 0.9652,-1.6256 2.54,-2.590799 1.5748,-0.9652 3.6068,-1.3716 2.032,-0.4572 4.2164,-0.4572 1.4732,0 2.5908,0.1524 1.1684,0.1016 1.8796,0.3048 v -0.7112 q 0,-1.9304 -1.1684,-3.0988 -1.1684,-1.1684 -4.064,-1.1684 -1.9304,0 -3.81,0.3048 -1.8796,0.254 -3.2512,0.762 l -0.9652,-6.096 q 0.6604,-0.2032 1.6256,-0.4064 1.016,-0.254 2.1844,-0.4064 1.1684,-0.2032 2.4384,-0.3048 1.3208,-0.1524 2.6416,-0.1524 z"
         style="font-style:normal;font-variant:normal;font-weight:bold;font-stretch:normal;font-size:50.8px;font-family:Ubuntu;-inkscape-font-specification:'Ubuntu Bold';fill:#ffffff;fill-opacity:1;stroke-width:0.264583"
         id="path975" />
    </g>
    <circle
       style="fill:#ff6900;fill-opacity:1;stroke:none;stroke-width:0.770393;stroke-miterlimit:4;stroke-dasharray:none;stroke-opacity:1"
       id="circle905"
       cx="196.1438"
       cy="92.307175"
       r="3.6523573" />
  </g>
</svg>
